<mxfile host="app.diagrams.net" modified="2023-10-05T19:49:57.119Z" agent="Mozilla/5.0 (Windows NT 10.0; Win64; x64) AppleWebKit/537.36 (KHTML, like Gecko) Chrome/116.0.0.0 Safari/537.36 OPR/102.0.0.0 (Edition Yx GX 03)" etag="S_1AiO5wE0d5qDArDrOC" version="22.0.0" type="google">
  <diagram name="Страница — 1" id="8Ea1oaCpZVZsOnpf_MXl">
    <mxGraphModel grid="1" page="1" gridSize="10" guides="1" tooltips="1" connect="1" arrows="1" fold="1" pageScale="1" pageWidth="827" pageHeight="1169" math="0" shadow="0">
      <root>
        <mxCell id="0" />
        <mxCell id="1" parent="0" />
        <mxCell id="9oZlGw_E0PTlBS_OEf-N-35" value="Система" style="text;html=1;align=center;verticalAlign=middle;resizable=0;points=[];autosize=1;strokeColor=none;fillColor=none;" vertex="1" parent="1">
          <mxGeometry x="378" y="130" width="70" height="30" as="geometry" />
        </mxCell>
        <mxCell id="V4i8b1m4TsCkMUbFpvic-20" value="Схема прeцедентов для графического редактора" style="text;html=1;strokeColor=none;fillColor=none;align=center;verticalAlign=middle;whiteSpace=wrap;rounded=0;" vertex="1" parent="1">
          <mxGeometry x="318" y="70" width="190" height="30" as="geometry" />
        </mxCell>
        <mxCell id="OifOHfhDEW2KqbXPT0BB-31" style="edgeStyle=orthogonalEdgeStyle;rounded=0;orthogonalLoop=1;jettySize=auto;html=1;exitX=1;exitY=0.5;exitDx=0;exitDy=0;entryX=0;entryY=0.5;entryDx=0;entryDy=0;endArrow=classic;endFill=1;dashed=1;" edge="1" parent="1" source="OifOHfhDEW2KqbXPT0BB-5">
          <mxGeometry relative="1" as="geometry">
            <mxPoint x="449.0000000000007" y="205" as="targetPoint" />
          </mxGeometry>
        </mxCell>
        <mxCell id="OifOHfhDEW2KqbXPT0BB-49" value="include" style="edgeLabel;html=1;align=center;verticalAlign=middle;resizable=0;points=[];" vertex="1" connectable="0" parent="OifOHfhDEW2KqbXPT0BB-31">
          <mxGeometry x="-0.0916" relative="1" as="geometry">
            <mxPoint x="2" as="offset" />
          </mxGeometry>
        </mxCell>
        <mxCell id="OifOHfhDEW2KqbXPT0BB-57" style="edgeStyle=orthogonalEdgeStyle;rounded=0;orthogonalLoop=1;jettySize=auto;html=1;exitX=0.5;exitY=1;exitDx=0;exitDy=0;entryX=0.5;entryY=0;entryDx=0;entryDy=0;endArrow=classic;endFill=1;dashed=1;" edge="1" parent="1" source="OifOHfhDEW2KqbXPT0BB-5" target="OifOHfhDEW2KqbXPT0BB-40">
          <mxGeometry relative="1" as="geometry" />
        </mxCell>
        <mxCell id="OifOHfhDEW2KqbXPT0BB-61" value="extends" style="edgeLabel;html=1;align=center;verticalAlign=middle;resizable=0;points=[];rotation=90;" vertex="1" connectable="0" parent="OifOHfhDEW2KqbXPT0BB-57">
          <mxGeometry x="-0.1213" relative="1" as="geometry">
            <mxPoint y="3" as="offset" />
          </mxGeometry>
        </mxCell>
        <mxCell id="OifOHfhDEW2KqbXPT0BB-5" value="Добавить изображение" style="ellipse;whiteSpace=wrap;html=1;" vertex="1" parent="1">
          <mxGeometry x="282" y="180" width="97" height="50" as="geometry" />
        </mxCell>
        <mxCell id="OifOHfhDEW2KqbXPT0BB-30" style="edgeStyle=orthogonalEdgeStyle;rounded=0;orthogonalLoop=1;jettySize=auto;html=1;exitX=0.5;exitY=0;exitDx=0;exitDy=0;entryX=0;entryY=0.5;entryDx=0;entryDy=0;endArrow=classic;endFill=1;dashed=1;" edge="1" parent="1" source="OifOHfhDEW2KqbXPT0BB-7" target="OifOHfhDEW2KqbXPT0BB-5">
          <mxGeometry relative="1" as="geometry" />
        </mxCell>
        <mxCell id="OifOHfhDEW2KqbXPT0BB-48" value="include" style="edgeLabel;html=1;align=center;verticalAlign=middle;resizable=0;points=[];" vertex="1" connectable="0" parent="OifOHfhDEW2KqbXPT0BB-30">
          <mxGeometry x="0.1696" y="-1" relative="1" as="geometry">
            <mxPoint x="-15" y="-1" as="offset" />
          </mxGeometry>
        </mxCell>
        <mxCell id="OifOHfhDEW2KqbXPT0BB-7" value="&lt;b&gt;Создать проект&lt;/b&gt;" style="ellipse;whiteSpace=wrap;html=1;" vertex="1" parent="1">
          <mxGeometry x="120" y="230" width="97" height="50" as="geometry" />
        </mxCell>
        <mxCell id="OifOHfhDEW2KqbXPT0BB-10" value="&lt;b&gt;Сохранить проект&lt;/b&gt;" style="ellipse;whiteSpace=wrap;html=1;" vertex="1" parent="1">
          <mxGeometry x="623" y="230" width="97" height="50" as="geometry" />
        </mxCell>
        <mxCell id="OifOHfhDEW2KqbXPT0BB-34" style="edgeStyle=orthogonalEdgeStyle;rounded=0;orthogonalLoop=1;jettySize=auto;html=1;exitX=1;exitY=0.5;exitDx=0;exitDy=0;entryX=0.5;entryY=1;entryDx=0;entryDy=0;endArrow=classic;endFill=1;dashed=1;" edge="1" parent="1" source="OifOHfhDEW2KqbXPT0BB-11" target="OifOHfhDEW2KqbXPT0BB-13">
          <mxGeometry relative="1" as="geometry">
            <Array as="points">
              <mxPoint x="671" y="455" />
            </Array>
          </mxGeometry>
        </mxCell>
        <mxCell id="OifOHfhDEW2KqbXPT0BB-47" value="include" style="edgeLabel;html=1;align=center;verticalAlign=middle;resizable=0;points=[];" vertex="1" connectable="0" parent="OifOHfhDEW2KqbXPT0BB-34">
          <mxGeometry x="-0.1729" y="2" relative="1" as="geometry">
            <mxPoint x="-10" y="2" as="offset" />
          </mxGeometry>
        </mxCell>
        <mxCell id="OifOHfhDEW2KqbXPT0BB-51" style="edgeStyle=orthogonalEdgeStyle;rounded=0;orthogonalLoop=1;jettySize=auto;html=1;exitX=0.5;exitY=0;exitDx=0;exitDy=0;entryX=0.5;entryY=1;entryDx=0;entryDy=0;dashed=1;" edge="1" parent="1" source="OifOHfhDEW2KqbXPT0BB-11" target="OifOHfhDEW2KqbXPT0BB-40">
          <mxGeometry relative="1" as="geometry" />
        </mxCell>
        <mxCell id="OifOHfhDEW2KqbXPT0BB-62" value="extends" style="edgeLabel;html=1;align=center;verticalAlign=middle;resizable=0;points=[];rotation=90;" vertex="1" connectable="0" parent="OifOHfhDEW2KqbXPT0BB-51">
          <mxGeometry x="-0.1301" relative="1" as="geometry">
            <mxPoint as="offset" />
          </mxGeometry>
        </mxCell>
        <mxCell id="OifOHfhDEW2KqbXPT0BB-55" style="edgeStyle=orthogonalEdgeStyle;rounded=0;orthogonalLoop=1;jettySize=auto;html=1;exitX=1;exitY=0;exitDx=0;exitDy=0;dashed=1;" edge="1" parent="1" source="OifOHfhDEW2KqbXPT0BB-11" target="OifOHfhDEW2KqbXPT0BB-10">
          <mxGeometry relative="1" as="geometry">
            <Array as="points">
              <mxPoint x="365" y="380" />
              <mxPoint x="670" y="380" />
            </Array>
          </mxGeometry>
        </mxCell>
        <mxCell id="OifOHfhDEW2KqbXPT0BB-59" value="include" style="edgeLabel;html=1;align=center;verticalAlign=middle;resizable=0;points=[];" vertex="1" connectable="0" parent="OifOHfhDEW2KqbXPT0BB-55">
          <mxGeometry x="-0.2451" y="1" relative="1" as="geometry">
            <mxPoint x="8" y="1" as="offset" />
          </mxGeometry>
        </mxCell>
        <mxCell id="OifOHfhDEW2KqbXPT0BB-11" value="Отредактировать" style="ellipse;whiteSpace=wrap;html=1;" vertex="1" parent="1">
          <mxGeometry x="282" y="430" width="97" height="50" as="geometry" />
        </mxCell>
        <mxCell id="OifOHfhDEW2KqbXPT0BB-13" value="&lt;b&gt;Удалить проект&lt;/b&gt;" style="ellipse;whiteSpace=wrap;html=1;" vertex="1" parent="1">
          <mxGeometry x="623" y="390" width="97" height="50" as="geometry" />
        </mxCell>
        <mxCell id="OifOHfhDEW2KqbXPT0BB-37" style="edgeStyle=orthogonalEdgeStyle;rounded=0;orthogonalLoop=1;jettySize=auto;html=1;exitX=1;exitY=0.5;exitDx=0;exitDy=0;entryX=0;entryY=0.5;entryDx=0;entryDy=0;endArrow=classic;endFill=1;dashed=1;" edge="1" parent="1" source="OifOHfhDEW2KqbXPT0BB-14" target="OifOHfhDEW2KqbXPT0BB-11">
          <mxGeometry relative="1" as="geometry">
            <Array as="points">
              <mxPoint x="170" y="415" />
              <mxPoint x="170" y="455" />
            </Array>
          </mxGeometry>
        </mxCell>
        <mxCell id="OifOHfhDEW2KqbXPT0BB-46" value="include" style="edgeLabel;html=1;align=center;verticalAlign=middle;resizable=0;points=[];" vertex="1" connectable="0" parent="OifOHfhDEW2KqbXPT0BB-37">
          <mxGeometry x="0.3257" y="1" relative="1" as="geometry">
            <mxPoint x="-5" y="1" as="offset" />
          </mxGeometry>
        </mxCell>
        <mxCell id="OifOHfhDEW2KqbXPT0BB-14" value="&lt;b&gt;Открыть проект&lt;/b&gt;" style="ellipse;whiteSpace=wrap;html=1;" vertex="1" parent="1">
          <mxGeometry x="120" y="390" width="97" height="50" as="geometry" />
        </mxCell>
        <mxCell id="OifOHfhDEW2KqbXPT0BB-26" style="edgeStyle=orthogonalEdgeStyle;rounded=0;orthogonalLoop=1;jettySize=auto;html=1;exitX=0.5;exitY=0.5;exitDx=0;exitDy=0;exitPerimeter=0;entryX=1;entryY=0.5;entryDx=0;entryDy=0;endArrow=none;endFill=0;" edge="1" parent="1" target="OifOHfhDEW2KqbXPT0BB-10">
          <mxGeometry relative="1" as="geometry">
            <mxPoint x="785" y="340" as="sourcePoint" />
          </mxGeometry>
        </mxCell>
        <mxCell id="OifOHfhDEW2KqbXPT0BB-27" style="edgeStyle=orthogonalEdgeStyle;rounded=0;orthogonalLoop=1;jettySize=auto;html=1;exitX=0.5;exitY=0.5;exitDx=0;exitDy=0;exitPerimeter=0;entryX=1;entryY=0.5;entryDx=0;entryDy=0;endArrow=none;endFill=0;" edge="1" parent="1" target="OifOHfhDEW2KqbXPT0BB-13">
          <mxGeometry relative="1" as="geometry">
            <mxPoint x="785" y="340" as="sourcePoint" />
          </mxGeometry>
        </mxCell>
        <mxCell id="OifOHfhDEW2KqbXPT0BB-24" style="edgeStyle=orthogonalEdgeStyle;rounded=0;orthogonalLoop=1;jettySize=auto;html=1;exitX=0.5;exitY=0.5;exitDx=0;exitDy=0;exitPerimeter=0;entryX=0;entryY=0.5;entryDx=0;entryDy=0;endArrow=none;endFill=0;" edge="1" parent="1" target="OifOHfhDEW2KqbXPT0BB-14">
          <mxGeometry relative="1" as="geometry">
            <mxPoint x="55" y="339.9999999999999" as="sourcePoint" />
          </mxGeometry>
        </mxCell>
        <mxCell id="OifOHfhDEW2KqbXPT0BB-25" style="edgeStyle=orthogonalEdgeStyle;rounded=0;orthogonalLoop=1;jettySize=auto;html=1;exitX=0.5;exitY=0.5;exitDx=0;exitDy=0;exitPerimeter=0;entryX=0;entryY=0.5;entryDx=0;entryDy=0;endArrow=none;endFill=0;" edge="1" parent="1" target="OifOHfhDEW2KqbXPT0BB-7">
          <mxGeometry relative="1" as="geometry">
            <mxPoint x="55" y="339.9999999999999" as="sourcePoint" />
          </mxGeometry>
        </mxCell>
        <mxCell id="OifOHfhDEW2KqbXPT0BB-32" style="edgeStyle=orthogonalEdgeStyle;rounded=0;orthogonalLoop=1;jettySize=auto;html=1;exitX=1;exitY=0.5;exitDx=0;exitDy=0;entryX=0.5;entryY=0;entryDx=0;entryDy=0;endArrow=classic;endFill=1;dashed=1;" edge="1" parent="1" target="OifOHfhDEW2KqbXPT0BB-10">
          <mxGeometry relative="1" as="geometry">
            <mxPoint x="545.9999999999993" y="205" as="sourcePoint" />
          </mxGeometry>
        </mxCell>
        <mxCell id="OifOHfhDEW2KqbXPT0BB-50" value="include" style="edgeLabel;html=1;align=center;verticalAlign=middle;resizable=0;points=[];" vertex="1" connectable="0" parent="OifOHfhDEW2KqbXPT0BB-32">
          <mxGeometry x="-0.0784" y="2" relative="1" as="geometry">
            <mxPoint x="-5" y="2" as="offset" />
          </mxGeometry>
        </mxCell>
        <mxCell id="OifOHfhDEW2KqbXPT0BB-66" style="edgeStyle=orthogonalEdgeStyle;rounded=0;orthogonalLoop=1;jettySize=auto;html=1;exitX=0.5;exitY=1;exitDx=0;exitDy=0;entryX=0.5;entryY=0;entryDx=0;entryDy=0;dashed=1;" edge="1" parent="1">
          <mxGeometry relative="1" as="geometry">
            <mxPoint x="480" y="230" as="sourcePoint" />
            <mxPoint x="655" y="390" as="targetPoint" />
            <Array as="points">
              <mxPoint x="573.5" y="230" />
              <mxPoint x="573.5" y="310" />
              <mxPoint x="654.5" y="310" />
            </Array>
          </mxGeometry>
        </mxCell>
        <mxCell id="OifOHfhDEW2KqbXPT0BB-67" value="include" style="edgeLabel;html=1;align=center;verticalAlign=middle;resizable=0;points=[];rotation=90;" vertex="1" connectable="0" parent="OifOHfhDEW2KqbXPT0BB-66">
          <mxGeometry x="-0.2455" y="-2" relative="1" as="geometry">
            <mxPoint x="2" y="-3" as="offset" />
          </mxGeometry>
        </mxCell>
        <mxCell id="OifOHfhDEW2KqbXPT0BB-38" value="Выбрать изображение" style="ellipse;whiteSpace=wrap;html=1;" vertex="1" parent="1">
          <mxGeometry x="448" y="180" width="97" height="50" as="geometry" />
        </mxCell>
        <mxCell id="OifOHfhDEW2KqbXPT0BB-39" value="Выбрать фигуру" style="ellipse;whiteSpace=wrap;html=1;" vertex="1" parent="1">
          <mxGeometry x="448" y="315" width="97" height="50" as="geometry" />
        </mxCell>
        <mxCell id="OifOHfhDEW2KqbXPT0BB-58" style="edgeStyle=orthogonalEdgeStyle;rounded=0;orthogonalLoop=1;jettySize=auto;html=1;exitX=1;exitY=0.5;exitDx=0;exitDy=0;entryX=0;entryY=0.5;entryDx=0;entryDy=0;dashed=1;" edge="1" parent="1" source="OifOHfhDEW2KqbXPT0BB-40" target="OifOHfhDEW2KqbXPT0BB-39">
          <mxGeometry relative="1" as="geometry" />
        </mxCell>
        <mxCell id="OifOHfhDEW2KqbXPT0BB-60" value="extends" style="edgeLabel;html=1;align=center;verticalAlign=middle;resizable=0;points=[];" vertex="1" connectable="0" parent="OifOHfhDEW2KqbXPT0BB-58">
          <mxGeometry x="-0.0559" y="-2" relative="1" as="geometry">
            <mxPoint x="1" y="-2" as="offset" />
          </mxGeometry>
        </mxCell>
        <mxCell id="OifOHfhDEW2KqbXPT0BB-40" value="Добавить фигуру" style="ellipse;whiteSpace=wrap;html=1;" vertex="1" parent="1">
          <mxGeometry x="282" y="315" width="97" height="50" as="geometry" />
        </mxCell>
        <mxCell id="OifOHfhDEW2KqbXPT0BB-56" style="edgeStyle=orthogonalEdgeStyle;rounded=0;orthogonalLoop=1;jettySize=auto;html=1;exitX=0;exitY=0;exitDx=0;exitDy=0;entryX=0.102;entryY=0.803;entryDx=0;entryDy=0;entryPerimeter=0;dashed=1;" edge="1" parent="1" source="OifOHfhDEW2KqbXPT0BB-11" target="OifOHfhDEW2KqbXPT0BB-5">
          <mxGeometry relative="1" as="geometry">
            <Array as="points">
              <mxPoint x="270" y="437" />
              <mxPoint x="270" y="220" />
            </Array>
          </mxGeometry>
        </mxCell>
        <mxCell id="OifOHfhDEW2KqbXPT0BB-63" value="extends" style="edgeLabel;html=1;align=center;verticalAlign=middle;resizable=0;points=[];rotation=90;" vertex="1" connectable="0" parent="OifOHfhDEW2KqbXPT0BB-56">
          <mxGeometry x="-0.1293" relative="1" as="geometry">
            <mxPoint y="-8" as="offset" />
          </mxGeometry>
        </mxCell>
        <mxCell id="OifOHfhDEW2KqbXPT0BB-68" value="" style="swimlane;startSize=0;" vertex="1" parent="1">
          <mxGeometry x="80" y="160" width="680" height="380" as="geometry" />
        </mxCell>
        <mxCell id="OifOHfhDEW2KqbXPT0BB-70" value="" style="shape=actor;whiteSpace=wrap;html=1;fillColor=#f5f5f5;strokeColor=#666666;gradientColor=#b3b3b3;" vertex="1" parent="1">
          <mxGeometry x="40" y="315" width="25" height="35" as="geometry" />
        </mxCell>
        <mxCell id="OifOHfhDEW2KqbXPT0BB-71" value="User" style="text;html=1;align=center;verticalAlign=middle;resizable=0;points=[];autosize=1;strokeColor=none;fillColor=none;" vertex="1" parent="1">
          <mxGeometry x="27.5" y="350" width="50" height="30" as="geometry" />
        </mxCell>
        <mxCell id="OifOHfhDEW2KqbXPT0BB-73" value="" style="rounded=1;whiteSpace=wrap;html=1;fillColor=#f5f5f5;strokeColor=#666666;gradientColor=#b3b3b3;" vertex="1" parent="1">
          <mxGeometry x="770" y="315" width="57" height="35" as="geometry" />
        </mxCell>
        <mxCell id="OifOHfhDEW2KqbXPT0BB-74" value="" style="endArrow=none;html=1;rounded=0;entryX=1;entryY=0.75;entryDx=0;entryDy=0;exitX=0;exitY=0.75;exitDx=0;exitDy=0;" edge="1" parent="1" source="OifOHfhDEW2KqbXPT0BB-73" target="OifOHfhDEW2KqbXPT0BB-73">
          <mxGeometry width="50" height="50" relative="1" as="geometry">
            <mxPoint x="774" y="340" as="sourcePoint" />
            <mxPoint x="824" y="290" as="targetPoint" />
          </mxGeometry>
        </mxCell>
        <mxCell id="OifOHfhDEW2KqbXPT0BB-79" value="" style="shape=waypoint;sketch=0;fillStyle=solid;size=6;pointerEvents=1;points=[];fillColor=none;resizable=0;rotatable=0;perimeter=centerPerimeter;snapToPoint=1;fontSize=10;" vertex="1" parent="1">
          <mxGeometry x="788.5" y="335" width="20" height="20" as="geometry" />
        </mxCell>
        <mxCell id="OifOHfhDEW2KqbXPT0BB-81" value="" style="verticalLabelPosition=bottom;verticalAlign=top;html=1;shape=mxgraph.basic.cone2;dx=0.52;dy=1;fillColor=#f5f5f5;gradientColor=#b3b3b3;strokeColor=#666666;" vertex="1" parent="1">
          <mxGeometry x="788.5" y="350" width="20" height="5" as="geometry" />
        </mxCell>
        <mxCell id="OifOHfhDEW2KqbXPT0BB-82" value="Program" style="text;html=1;align=center;verticalAlign=middle;resizable=0;points=[];autosize=1;strokeColor=none;fillColor=none;" vertex="1" parent="1">
          <mxGeometry x="763.5" y="350" width="70" height="30" as="geometry" />
        </mxCell>
      </root>
    </mxGraphModel>
  </diagram>
</mxfile>
